<svg width="23" height="4" viewBox="0 0 23 4" fill="none" xmlns="http://www.w3.org/2000/svg">
<path d="M22.5 1.62359C22.2192 2.10154 21.9224 2.43135 21.4916 2.33352C21.2427 2.27203 20.9842 2.39222 20.7289 2.41737L18.1504 2.66613L16.874 2.78911L15.5783 2.8478C14.8348 2.88414 14.0944 2.97078 13.3445 3.02948C12.0936 3.1301 10.8394 3.2419 9.58211 3.30898C8.94387 3.34811 8.30564 3.29221 7.64826 3.32854L6.6909 3.38724L5.73355 3.43196C5.09531 3.4627 4.44112 3.48786 3.79331 3.49904C3.1455 3.51022 2.46578 3.42078 1.80521 3.39003C1.55844 3.39944 1.3124 3.41996 1.06805 3.45152C0.958469 3.46755 0.846791 3.43633 0.768075 3.36767C0.506398 3.11892 0.423427 2.37265 0.576604 1.69067C0.697869 1.16521 0.851045 0.80745 1.07443 0.80186C1.59778 0.80186 2.12113 0.78509 2.64768 0.765525L4.22412 0.731985C4.65174 0.731985 5.07617 0.620185 5.50059 0.609005C6.16755 0.59503 6.84089 0.631365 7.51103 0.653725C8.49711 0.676085 9.48318 0.709625 10.4693 0.69006C11.5989 0.670495 12.7254 0.60062 13.8551 0.5559C14.2125 0.541925 14.5699 0.53354 14.9241 0.52795L16.6027 0.5C17.1612 0.5 17.7228 0.541925 18.2845 0.558695C19.4524 0.60062 20.6172 0.63975 21.7948 0.70683C21.8831 0.709775 21.9708 0.721019 22.0564 0.74037C22.3724 0.832605 22.4234 0.927636 22.5 1.62359Z" fill="#1E1E1E"/>
</svg>
